%TF.GenerationSoftware,KiCad,Pcbnew,(5.1.6)-1*%
%TF.CreationDate,2022-09-18T22:31:06+09:00*%
%TF.ProjectId,JoyConMouse,4a6f7943-6f6e-44d6-9f75-73652e6b6963,rev?*%
%TF.SameCoordinates,Original*%
%TF.FileFunction,Legend,Bot*%
%TF.FilePolarity,Positive*%
%FSLAX46Y46*%
G04 Gerber Fmt 4.6, Leading zero omitted, Abs format (unit mm)*
G04 Created by KiCad (PCBNEW (5.1.6)-1) date 2022-09-18 22:31:06*
%MOMM*%
%LPD*%
G01*
G04 APERTURE LIST*
%ADD10C,0.300000*%
G04 APERTURE END LIST*
D10*
X70285714Y-86178571D02*
X70285714Y-87250000D01*
X70357142Y-87464285D01*
X70500000Y-87607142D01*
X70714285Y-87678571D01*
X70857142Y-87678571D01*
X69357142Y-87678571D02*
X69500000Y-87607142D01*
X69571428Y-87535714D01*
X69642857Y-87392857D01*
X69642857Y-86964285D01*
X69571428Y-86821428D01*
X69500000Y-86750000D01*
X69357142Y-86678571D01*
X69142857Y-86678571D01*
X69000000Y-86750000D01*
X68928571Y-86821428D01*
X68857142Y-86964285D01*
X68857142Y-87392857D01*
X68928571Y-87535714D01*
X69000000Y-87607142D01*
X69142857Y-87678571D01*
X69357142Y-87678571D01*
X68357142Y-86678571D02*
X68000000Y-87678571D01*
X67642857Y-86678571D02*
X68000000Y-87678571D01*
X68142857Y-88035714D01*
X68214285Y-88107142D01*
X68357142Y-88178571D01*
X66214285Y-87535714D02*
X66285714Y-87607142D01*
X66500000Y-87678571D01*
X66642857Y-87678571D01*
X66857142Y-87607142D01*
X67000000Y-87464285D01*
X67071428Y-87321428D01*
X67142857Y-87035714D01*
X67142857Y-86821428D01*
X67071428Y-86535714D01*
X67000000Y-86392857D01*
X66857142Y-86250000D01*
X66642857Y-86178571D01*
X66500000Y-86178571D01*
X66285714Y-86250000D01*
X66214285Y-86321428D01*
X65357142Y-87678571D02*
X65500000Y-87607142D01*
X65571428Y-87535714D01*
X65642857Y-87392857D01*
X65642857Y-86964285D01*
X65571428Y-86821428D01*
X65500000Y-86750000D01*
X65357142Y-86678571D01*
X65142857Y-86678571D01*
X65000000Y-86750000D01*
X64928571Y-86821428D01*
X64857142Y-86964285D01*
X64857142Y-87392857D01*
X64928571Y-87535714D01*
X65000000Y-87607142D01*
X65142857Y-87678571D01*
X65357142Y-87678571D01*
X64214285Y-86678571D02*
X64214285Y-87678571D01*
X64214285Y-86821428D02*
X64142857Y-86750000D01*
X64000000Y-86678571D01*
X63785714Y-86678571D01*
X63642857Y-86750000D01*
X63571428Y-86892857D01*
X63571428Y-87678571D01*
X62857142Y-87678571D02*
X62857142Y-86178571D01*
X62357142Y-87250000D01*
X61857142Y-86178571D01*
X61857142Y-87678571D01*
X60928571Y-87678571D02*
X61071428Y-87607142D01*
X61142857Y-87535714D01*
X61214285Y-87392857D01*
X61214285Y-86964285D01*
X61142857Y-86821428D01*
X61071428Y-86750000D01*
X60928571Y-86678571D01*
X60714285Y-86678571D01*
X60571428Y-86750000D01*
X60500000Y-86821428D01*
X60428571Y-86964285D01*
X60428571Y-87392857D01*
X60500000Y-87535714D01*
X60571428Y-87607142D01*
X60714285Y-87678571D01*
X60928571Y-87678571D01*
X59142857Y-86678571D02*
X59142857Y-87678571D01*
X59785714Y-86678571D02*
X59785714Y-87464285D01*
X59714285Y-87607142D01*
X59571428Y-87678571D01*
X59357142Y-87678571D01*
X59214285Y-87607142D01*
X59142857Y-87535714D01*
X58500000Y-87607142D02*
X58357142Y-87678571D01*
X58071428Y-87678571D01*
X57928571Y-87607142D01*
X57857142Y-87464285D01*
X57857142Y-87392857D01*
X57928571Y-87250000D01*
X58071428Y-87178571D01*
X58285714Y-87178571D01*
X58428571Y-87107142D01*
X58500000Y-86964285D01*
X58500000Y-86892857D01*
X58428571Y-86750000D01*
X58285714Y-86678571D01*
X58071428Y-86678571D01*
X57928571Y-86750000D01*
X56642857Y-87607142D02*
X56785714Y-87678571D01*
X57071428Y-87678571D01*
X57214285Y-87607142D01*
X57285714Y-87464285D01*
X57285714Y-86892857D01*
X57214285Y-86750000D01*
X57071428Y-86678571D01*
X56785714Y-86678571D01*
X56642857Y-86750000D01*
X56571428Y-86892857D01*
X56571428Y-87035714D01*
X57285714Y-87178571D01*
X55000000Y-86178571D02*
X54500000Y-87678571D01*
X54000000Y-86178571D01*
X52928571Y-87607142D02*
X53071428Y-87678571D01*
X53357142Y-87678571D01*
X53500000Y-87607142D01*
X53571428Y-87464285D01*
X53571428Y-86892857D01*
X53500000Y-86750000D01*
X53357142Y-86678571D01*
X53071428Y-86678571D01*
X52928571Y-86750000D01*
X52857142Y-86892857D01*
X52857142Y-87035714D01*
X53571428Y-87178571D01*
X52214285Y-87678571D02*
X52214285Y-86678571D01*
X52214285Y-86964285D02*
X52142857Y-86821428D01*
X52071428Y-86750000D01*
X51928571Y-86678571D01*
X51785714Y-86678571D01*
X51285714Y-87535714D02*
X51214285Y-87607142D01*
X51285714Y-87678571D01*
X51357142Y-87607142D01*
X51285714Y-87535714D01*
X51285714Y-87678571D01*
X50285714Y-86178571D02*
X50142857Y-86178571D01*
X50000000Y-86250000D01*
X49928571Y-86321428D01*
X49857142Y-86464285D01*
X49785714Y-86750000D01*
X49785714Y-87107142D01*
X49857142Y-87392857D01*
X49928571Y-87535714D01*
X50000000Y-87607142D01*
X50142857Y-87678571D01*
X50285714Y-87678571D01*
X50428571Y-87607142D01*
X50500000Y-87535714D01*
X50571428Y-87392857D01*
X50642857Y-87107142D01*
X50642857Y-86750000D01*
X50571428Y-86464285D01*
X50500000Y-86321428D01*
X50428571Y-86250000D01*
X50285714Y-86178571D01*
X49142857Y-87535714D02*
X49071428Y-87607142D01*
X49142857Y-87678571D01*
X49214285Y-87607142D01*
X49142857Y-87535714D01*
X49142857Y-87678571D01*
X48142857Y-86178571D02*
X48000000Y-86178571D01*
X47857142Y-86250000D01*
X47785714Y-86321428D01*
X47714285Y-86464285D01*
X47642857Y-86750000D01*
X47642857Y-87107142D01*
X47714285Y-87392857D01*
X47785714Y-87535714D01*
X47857142Y-87607142D01*
X48000000Y-87678571D01*
X48142857Y-87678571D01*
X48285714Y-87607142D01*
X48357142Y-87535714D01*
X48428571Y-87392857D01*
X48500000Y-87107142D01*
X48500000Y-86750000D01*
X48428571Y-86464285D01*
X48357142Y-86321428D01*
X48285714Y-86250000D01*
X48142857Y-86178571D01*
X46214285Y-87678571D02*
X47071428Y-87678571D01*
X46642857Y-87678571D02*
X46642857Y-86178571D01*
X46785714Y-86392857D01*
X46928571Y-86535714D01*
X47071428Y-86607142D01*
M02*
