%TF.GenerationSoftware,KiCad,Pcbnew,(5.1.6)-1*%
%TF.CreationDate,2022-09-18T22:31:06+09:00*%
%TF.ProjectId,JoyConMouse,4a6f7943-6f6e-44d6-9f75-73652e6b6963,rev?*%
%TF.SameCoordinates,Original*%
%TF.FileFunction,Soldermask,Bot*%
%TF.FilePolarity,Negative*%
%FSLAX46Y46*%
G04 Gerber Fmt 4.6, Leading zero omitted, Abs format (unit mm)*
G04 Created by KiCad (PCBNEW (5.1.6)-1) date 2022-09-18 22:31:06*
%MOMM*%
%LPD*%
G01*
G04 APERTURE LIST*
%ADD10C,1.765000*%
%ADD11C,1.600000*%
%ADD12C,3.529000*%
%ADD13C,2.132000*%
%ADD14C,1.090600*%
%ADD15C,1.801800*%
G04 APERTURE END LIST*
D10*
%TO.C,IC1*%
X53000000Y-95000000D03*
X55540000Y-95000000D03*
X58080000Y-95000000D03*
X60620000Y-95000000D03*
X63160000Y-95000000D03*
X65700000Y-95000000D03*
X68240000Y-95000000D03*
X70780000Y-95000000D03*
X73320000Y-95000000D03*
X73320000Y-79760000D03*
X68240000Y-79760000D03*
X65700000Y-79760000D03*
X70780000Y-79760000D03*
X53000000Y-79760000D03*
X50460000Y-79760000D03*
X47920000Y-79760000D03*
X45380000Y-79760000D03*
X45380000Y-95000000D03*
X47920000Y-95000000D03*
X50460000Y-95000000D03*
X63160000Y-79760000D03*
X60620000Y-79760000D03*
X58080000Y-79760000D03*
X55540000Y-79760000D03*
%TD*%
D11*
%TO.C,IC2*%
X150000000Y-80000000D03*
X148000000Y-80000000D03*
X146000000Y-80000000D03*
X156600000Y-90600000D03*
X156600000Y-88600000D03*
X156600000Y-86600000D03*
X154000000Y-94600000D03*
X142000000Y-82600000D03*
%TD*%
D12*
%TO.C,SW1*%
X88000000Y-88000000D03*
D13*
X83000000Y-91800000D03*
X88000000Y-93900000D03*
D14*
X93220000Y-83800000D03*
D15*
X93500000Y-88000000D03*
X82500000Y-88000000D03*
%TD*%
%TO.C,SW2*%
X100500000Y-88000000D03*
X111500000Y-88000000D03*
D14*
X111220000Y-83800000D03*
D13*
X106000000Y-93900000D03*
X101000000Y-91800000D03*
D12*
X106000000Y-88000000D03*
%TD*%
%TO.C,SW3*%
X124000000Y-88000000D03*
D13*
X119000000Y-91800000D03*
X124000000Y-93900000D03*
D14*
X129220000Y-83800000D03*
D15*
X129500000Y-88000000D03*
X118500000Y-88000000D03*
%TD*%
M02*
