M48
; DRILL file {KiCad (5.1.6)-1} date 09/18/22 22:31:09
; FORMAT={-:-/ absolute / metric / decimal}
; #@! TF.CreationDate,2022-09-18T22:31:09+09:00
; #@! TF.GenerationSoftware,Kicad,Pcbnew,(5.1.6)-1
; #@! TF.FileFunction,Plated,1,2,PTH
FMAT,2
METRIC
T1C0.400
T2C1.000
T3C1.110
T4C1.270
%
G90
G05
T1
X79.5Y-91.5
X80.0Y-96.425
X84.0Y-85.0
T2
X146.0Y-80.0
X148.0Y-80.0
X150.0Y-80.0
X156.6Y-86.6
X156.6Y-88.6
X156.6Y-90.6
T3
X45.38Y-79.76
X45.38Y-95.0
X47.92Y-79.76
X47.92Y-95.0
X50.46Y-79.76
X50.46Y-95.0
X53.0Y-79.76
X53.0Y-95.0
X55.54Y-79.76
X55.54Y-95.0
X58.08Y-79.76
X58.08Y-95.0
X60.62Y-79.76
X60.62Y-95.0
X63.16Y-79.76
X63.16Y-95.0
X65.7Y-79.76
X65.7Y-95.0
X68.24Y-79.76
X68.24Y-95.0
X70.78Y-79.76
X70.78Y-95.0
X73.32Y-79.76
X73.32Y-95.0
T4
X119.0Y-91.8
X124.0Y-93.9
X101.0Y-91.8
X106.0Y-93.9
X83.0Y-91.8
X88.0Y-93.9
T0
M30
