%TF.GenerationSoftware,KiCad,Pcbnew,(5.1.6)-1*%
%TF.CreationDate,2022-09-18T22:31:06+09:00*%
%TF.ProjectId,JoyConMouse,4a6f7943-6f6e-44d6-9f75-73652e6b6963,rev?*%
%TF.SameCoordinates,Original*%
%TF.FileFunction,Paste,Top*%
%TF.FilePolarity,Positive*%
%FSLAX46Y46*%
G04 Gerber Fmt 4.6, Leading zero omitted, Abs format (unit mm)*
G04 Created by KiCad (PCBNEW (5.1.6)-1) date 2022-09-18 22:31:06*
%MOMM*%
%LPD*%
G01*
G04 APERTURE LIST*
G04 APERTURE END LIST*
%TO.C,R1*%
G36*
G01*
X76600000Y-80237500D02*
X76600000Y-79762500D01*
G75*
G02*
X76837500Y-79525000I237500J0D01*
G01*
X77412500Y-79525000D01*
G75*
G02*
X77650000Y-79762500I0J-237500D01*
G01*
X77650000Y-80237500D01*
G75*
G02*
X77412500Y-80475000I-237500J0D01*
G01*
X76837500Y-80475000D01*
G75*
G02*
X76600000Y-80237500I0J237500D01*
G01*
G37*
G36*
G01*
X78350000Y-80237500D02*
X78350000Y-79762500D01*
G75*
G02*
X78587500Y-79525000I237500J0D01*
G01*
X79162500Y-79525000D01*
G75*
G02*
X79400000Y-79762500I0J-237500D01*
G01*
X79400000Y-80237500D01*
G75*
G02*
X79162500Y-80475000I-237500J0D01*
G01*
X78587500Y-80475000D01*
G75*
G02*
X78350000Y-80237500I0J237500D01*
G01*
G37*
%TD*%
%TO.C,R2*%
G36*
G01*
X78350000Y-83237500D02*
X78350000Y-82762500D01*
G75*
G02*
X78587500Y-82525000I237500J0D01*
G01*
X79162500Y-82525000D01*
G75*
G02*
X79400000Y-82762500I0J-237500D01*
G01*
X79400000Y-83237500D01*
G75*
G02*
X79162500Y-83475000I-237500J0D01*
G01*
X78587500Y-83475000D01*
G75*
G02*
X78350000Y-83237500I0J237500D01*
G01*
G37*
G36*
G01*
X76600000Y-83237500D02*
X76600000Y-82762500D01*
G75*
G02*
X76837500Y-82525000I237500J0D01*
G01*
X77412500Y-82525000D01*
G75*
G02*
X77650000Y-82762500I0J-237500D01*
G01*
X77650000Y-83237500D01*
G75*
G02*
X77412500Y-83475000I-237500J0D01*
G01*
X76837500Y-83475000D01*
G75*
G02*
X76600000Y-83237500I0J237500D01*
G01*
G37*
%TD*%
%TO.C,R3*%
G36*
G01*
X76600000Y-95237500D02*
X76600000Y-94762500D01*
G75*
G02*
X76837500Y-94525000I237500J0D01*
G01*
X77412500Y-94525000D01*
G75*
G02*
X77650000Y-94762500I0J-237500D01*
G01*
X77650000Y-95237500D01*
G75*
G02*
X77412500Y-95475000I-237500J0D01*
G01*
X76837500Y-95475000D01*
G75*
G02*
X76600000Y-95237500I0J237500D01*
G01*
G37*
G36*
G01*
X78350000Y-95237500D02*
X78350000Y-94762500D01*
G75*
G02*
X78587500Y-94525000I237500J0D01*
G01*
X79162500Y-94525000D01*
G75*
G02*
X79400000Y-94762500I0J-237500D01*
G01*
X79400000Y-95237500D01*
G75*
G02*
X79162500Y-95475000I-237500J0D01*
G01*
X78587500Y-95475000D01*
G75*
G02*
X78350000Y-95237500I0J237500D01*
G01*
G37*
%TD*%
M02*
